<?xml version="1.0" standalone="no"?>
<!DOCTYPE svg PUBLIC "-//W3C//DTD SVG 20010904//EN"
 "http://www.w3.org/TR/2001/REC-SVG-20010904/DTD/svg10.dtd">
<svg version="1.0" xmlns="http://www.w3.org/2000/svg"
 width="180.000000pt" height="180.000000pt" viewBox="0 0 180.000000 180.000000"
 preserveAspectRatio="xMidYMid meet">
<metadata>
Created by potrace 1.11, written by Peter Selinger 2001-2013
</metadata>
<g transform="translate(0.000000,180.000000) scale(0.100000,-0.100000)"
fill="#000000" stroke="none">
<path d="M0 900 l0 -900 900 0 900 0 0 900 0 900 -900 0 -900 0 0 -900z m1680
700 c0 -16 -8 -19 -57 -22 l-58 -3 -5 -580 c-5 -521 -7 -585 -23 -625 -57
-146 -217 -251 -387 -253 -128 -2 -213 48 -241 143 -23 77 24 162 97 176 49 9
82 -2 121 -41 40 -40 44 -88 11 -147 -27 -48 -17 -71 32 -76 26 -3 40 3 66 29
19 18 39 49 44 69 6 21 10 285 10 673 l0 637 -74 0 c-65 0 -74 2 -79 20 -5 20
0 20 269 20 265 0 274 -1 274 -20z"/>
</g>
</svg>
